<svg width="1442" height="130" viewBox="0 0 1442 130" fill="none" xmlns="http://www.w3.org/2000/svg">
<path d="M1441.05 0C1438.29 0.23 1435.47 0.09 1432.88 0.06C1428.88 1.98 1425.16 0.96 1421.34 4.19C1417.26 5.11699 1413.08 5.50696 1408.9 5.35C1404.64 6.86 1400.58 8.55 1397.07 8.5C1394.88 5.71 1392.94 9.64 1391 12.23C1389 14.58 1387.12 14.12 1384.93 15.69C1382.74 17.26 1380.45 19 1378.19 16.85C1375.92 16.28 1373.66 21.15 1371.45 17.85C1369.21 15.37 1366.82 18.85 1364.45 16.85C1362.06 16.21 1359.67 14.67 1357.45 15.75C1355.22 13.12 1353.06 16.39 1350.91 17.82C1348.76 19.25 1346.59 18.65 1344.35 19.9C1342.13 19.84 1339.88 22.38 1337.63 20.76C1335.39 27.92 1333.13 19.7 1330.9 21.76C1328.69 24.61 1326.53 24.66 1324.36 23.46C1322.18 26.09 1320.01 24.21 1317.79 25.36C1313.75 25.5756 1309.73 26.1376 1305.79 27.04C1301.97 27.52 1298.73 23.15 1295.12 30.04C1289.39 29.98 1287.28 32.73 1284.64 32.58C1282.33 34.7 1279.92 30.06 1274.38 29.45C1272.02 30.67 1269.73 29.39 1267.5 28.13C1265.26 27.98 1263.08 24.3 1260.92 27.13C1258.66 25.54 1256.43 29.66 1254.21 28.9C1251.98 27.8 1249.75 31.37 1247.49 30.9C1245.33 32.33 1243.14 29.38 1240.9 30.7C1238.65 30.94 1236.36 32.81 1233.99 30.56C1229.64 27.66 1225.42 31.91 1221.28 29.29C1216.97 30.46 1212.99 29.04 1208.84 26.85C1204.6 25.7 1200.36 27.07 1196.2 25.98C1191.97 27.3741 1187.46 27.7241 1183.07 27C1178.92 27.22 1175.23 19.85 1171 22C1166.86 22.53 1162.7 17.95 1158.4 19.4C1156.15 21.34 1153.87 19.96 1151.59 21.33C1149.31 22.1 1147.03 21.49 1144.78 23.62C1142.53 25.53 1140.27 24.33 1138.02 22.95C1135.76 23.2329 1133.48 23.0939 1131.27 22.54C1129.03 23.68 1126.71 22.23 1124.39 22.18C1122.08 23.83 1119.77 21.8 1117.54 21.97C1115.31 22.14 1113.1 21.06 1110.9 23.51C1108.71 23.75 1106.52 24.81 1104.31 25.08C1102.1 25.35 1099.83 26.2 1097.61 26.26C1095.39 26.51 1093.18 28.21 1090.97 27.36C1086.6 29.12 1082.37 27.6 1078.32 26.36C1076.14 26.9 1073.99 27.11 1071.88 28.52C1069.77 29.35 1067.68 30.96 1065.64 30.36C1061.35 29.09 1057.39 27.27 1053.26 26.58C1049.08 26.24 1044.73 21.67 1040.58 25.58C1036.49 26.14 1032.48 21.29 1028.29 22.48C1024.29 24.2 1020.23 17.97 1015.99 19.42C1011.99 19.26 1007.42 20.61 1003.12 19.78C1001.01 19.31 999.03 16.05 997.05 17.2C995.05 14.65 993.05 16.38 990.97 14.63C986.76 18.91 982.28 17.07 978.06 14.63C975.95 16.51 973.95 11.63 971.94 12.12C969.94 10.95 967.94 7.41 965.82 9.64C961.59 7.7 957.28 11.64 953.04 8.52C948.682 8.54323 944.333 8.93125 940.04 9.68C935.79 10.01 931.7 5.53 927.45 6.68C923.2 6.68 918.8 4.38 914.55 8.08C910.29 9.84 906.04 5.34 901.79 7.72C897.52 8.08 893.24 2.61 888.99 4.79C884.72 9.07 880.37 4.15 876.12 4.99C874 6.51 872 8.91 869.9 7.43C867.84 8.69 865.79 11.94 863.67 10.01C859.43 9.43 854.97 10.27 850.74 9.23C846.53 9.35 841.93 7.05 837.74 9.33C833.55 11.61 829.54 11.39 825.39 13.16C821.24 14.93 817.64 18.41 813.54 18.37C811.3 21.15 809.02 19.51 806.74 19.7C804.46 19.89 802.19 19.7 799.97 20.43C797.69 20.9 795.42 19.31 793.15 20.22C790.88 23.22 788.61 19.97 786.35 19.59C784.291 20.857 781.851 21.3564 779.46 21C777.16 21.52 774.86 19.69 772.59 22.16C770.32 23.1 768.08 21.31 765.84 20.85C763.6 20.39 761.35 21.41 759.08 19.51C756.788 20.0974 754.36 19.8085 752.27 18.7C749.99 17.7 747.72 19.57 745.44 18.07C743.17 19.52 740.95 16.86 738.71 19.52C736.48 20.08 734.24 19.35 731.95 21.34C727.8 21.65 723.81 21.8 719.75 22.96C715.63 22.16 711.17 23.42 707.11 22.09C703 20.37 699 20.33 695 24.56C690.9 23.56 686.71 27.15 682.6 25.21C678.5 25.71 674.6 28.47 670.39 28.88C666.31 26.71 662.16 27.73 657.98 25.72C653.98 28.66 649.55 27.03 645.37 27.03C641.37 28.03 637.65 25.3 633.53 22.82C629.34 21.06 624.83 21.1 620.69 20.82C616.5 18.03 612.17 18.05 608.01 18.4C603.8 11.04 600.01 14.49 595.78 14.04C591.55 11.6 586.97 13.69 582.71 14.04C578.47 13.55 574.37 11.46 570.07 12.17C565.81 11.92 561.71 8.66 557.37 10.31C555.25 8.58 553.11 9.47 550.96 8.31C548.81 4.31 546.64 7.1 544.46 6.55C542.32 7.35 540.23 7.08 538.14 8.45C536.06 7.87 533.98 11.45 531.87 10.61C527.63 8.39 522.98 9.17 518.77 9.21C514.55 6.77 510.45 12.36 506.24 12.01C504.14 14.46 502.17 13.62 500.19 14.82C499.281 15.5615 498.149 15.9763 496.976 15.9981C495.803 16.0198 494.656 15.6472 493.72 14.94C491.61 18.27 489.8 14.32 487.56 16.31C485.33 16.26 483.09 17.6 480.96 14.89C476.73 17.41 472.63 13.26 468.34 16.56C464.04 18.9 459.8 21.15 455.51 15.79C453.37 15.12 451.14 17.7 448.91 16.62C446.68 16.87 444.45 19.25 442.31 17.37C438.02 16.27 433.94 14.11 429.65 14.59C425.36 12.71 421.14 14.49 416.83 15.22C414.7 13.08 412.48 12.96 410.21 15.17C407.94 21.37 405.61 14.81 403.27 15C401.08 12.65 398.91 11.68 396.71 12.36C394.51 14.55 392.29 13.21 390.01 9.69C387.78 9.23 385.5 4.77 383.22 10.76C380.94 12.52 378.66 12.37 376.41 11.87C374.14 11.09 371.88 13.27 369.64 12.73C367.39 11.92 365.17 15.01 362.96 13.73C360.64 15.73 358.31 13.62 356.02 11.48C353.911 10.4505 351.648 9.77484 349.32 9.48C346.95 10.86 344.71 12.4 342.55 11.48C340.39 10.56 338.29 11.82 336.22 13.88C332.22 15.05 328.22 14.26 324.31 15.64C320.31 19.16 316.44 18.57 312.51 18.53C308.51 20.98 304.37 19.86 300.39 18.21C296.39 21.02 292.39 17.21 288.39 20.46C284.39 18.91 280.39 17.46 276.39 17.78C272.39 17.03 268.6 15.47 264.53 14.94C260.61 11.82 256.65 14.79 252.53 14.16C248.62 17.53 244.53 16.32 240.42 14.81C236.37 12.55 232.22 14.64 228.09 14.65C224.04 13.57 220.09 14.85 215.95 11.84C211.88 8.12 207.73 9.6 203.61 11.98C199.53 12.13 195.42 13.11 191.32 11.47C187.23 10.47 183.12 8.56 179.02 10.99C174.695 10.8168 170.412 11.9005 166.69 14.11C162.57 14.29 158.49 10.47 154.41 10.38C150.466 8.70881 146.039 8.57326 142 10C137.87 13.42 133.76 10 129.7 10.62C125.56 9.49 121.6 16.62 117.55 14.29C115.32 13.62 113.05 15.41 110.77 12.79C108.49 11.62 106.2 9.79 103.92 11C101.64 10.84 99.38 14.31 97.13 10.56C94.87 9.66 92.63 7.38 90.39 10.06C88.07 7.16 85.75 8.24 83.46 9.96C81.17 8.34 78.92 7.14 76.73 10.02C71.9 11.45 68.41 10.83 65.64 11.89C61.39 10.55 57.94 12.27 54.5 14.35C51.96 18.81 50.84 19.84 46.43 23.2C44.32 21.08 41.99 26.49 39.67 24.9C37.34 24.04 35.01 22.68 32.89 25.74C30.69 26.95 28.43 25.66 26.18 25.28C23.93 28.08 21.67 21.22 19.47 24.28C17.26 20.88 15.03 28.14 12.8 25.28C10.57 27.57 8.33997 20.98 6.12997 26.08C4.12997 26.99 2.17997 23.74 0.219971 24.08V129.5H1441.05V0Z" fill="#BC9651"/>
<path d="M1441.05 59.19V19.74L1440.11 20.2C1438.05 23.88 1435.98 22.5 1433.8 22.83C1431.62 21.26 1429.27 20.89 1426.9 22.32C1424.53 24.58 1422.14 20.2 1419.9 21.32C1417.7 21.83 1415.49 21.86 1413.25 23.41C1411.01 23.01 1408.75 28.41 1406.47 24.98C1403.4 27.98 1400.47 22.45 1397.33 21.48C1394.22 23.04 1390.86 24.56 1387.72 23.64C1384.33 26.41 1381.1 22.71 1377.72 22.96C1374.44 23.961 1370.91 23.7079 1367.81 22.25C1363.63 23.25 1359.57 25.83 1355.38 24.99C1351.21 25.73 1346.67 20.99 1342.47 24.33C1338.31 22.84 1334.02 23.39 1329.83 25.94C1327.77 29.37 1325.91 25.53 1324.04 29.06C1322.18 28.19 1320.31 30.87 1318.23 32.36C1314.67 35.97 1311.02 33.93 1307.23 35.91C1303.44 37.18 1298.62 37.37 1295.04 35.22C1290.87 36.13 1287.3 35.68 1283.32 36.54C1279.21 36.54 1274.93 34.96 1270.89 35.59C1268.75 32.51 1266.67 37.59 1264.58 37.96C1262.49 36.4 1260.4 37.74 1258.24 40.28C1257.24 40.9216 1256.1 41.3107 1254.92 41.4135C1253.74 41.5163 1252.55 41.3297 1251.46 40.87C1249.14 41.11 1246.83 39.28 1244.65 41.29C1242.46 45.07 1240.3 40.64 1238.14 42.57C1235.97 42.27 1233.81 44.38 1231.6 43.57C1229.38 41.82 1227.25 43.22 1225.12 45.99C1222.99 46.31 1220.86 45.46 1218.62 47.99C1216.39 48.46 1214.16 46.76 1211.93 47.46C1209.7 44.91 1207.47 46.75 1205.22 46.46C1203.03 49.02 1200.94 45.72 1198.86 44.66C1196.77 43.36 1194.67 44.82 1192.48 42.26C1188.42 42.8148 1184.32 43.1187 1180.22 43.17C1176.49 41.67 1173.01 40.65 1169.31 38.87C1166.11 38.26 1163.31 36.31 1160.17 34.58C1157.17 32.14 1154.56 32.19 1151.66 30.89C1149.25 28.61 1146.78 29.89 1144.3 29.78C1141.82 29.67 1139.3 32.7 1136.96 28.94C1134.54 29.78 1132.06 31.58 1129.58 29.74C1127.1 32.74 1124.58 34.03 1122.16 31.1C1119.76 30.62 1117.31 30.5 1114.84 29.98C1112.38 29.71 1109.9 30.45 1107.44 29.66C1104.66 29 1101.76 31.66 1099 29.82C1096.24 31.27 1094.16 36.15 1091.43 35.55C1089.14 36.55 1086.77 34.55 1084.43 35.35C1082.07 35.09 1079.72 34.11 1077.43 34.76C1076.54 33.9145 1075.41 33.3574 1074.19 33.1612C1072.98 32.965 1071.73 33.1388 1070.62 33.66C1068.36 35.74 1066.11 30.86 1063.83 32.24C1061.56 30.59 1059.29 32.06 1057.01 32.24C1054.74 29.42 1052.46 32.07 1050.19 31.96C1047.95 29.18 1045.7 32.56 1043.44 31.11C1041.18 28.05 1038.91 31.83 1036.64 30.11C1034.43 30.87 1032.3 26.87 1030.16 27.83C1028.02 25.26 1025.87 23.63 1023.6 25.45C1021.24 26.2802 1018.76 26.6733 1016.26 26.61C1013.79 27.61 1011.32 29.4 1008.97 28.41C1006.6 33.09 1004.23 28.05 1001.86 27.33C999.49 30.78 997.11 28.04 994.73 26.42C992.39 25.71 990.03 28.97 987.67 27.29C985.3 27.29 982.92 28.14 980.51 27.85C977.69 23.85 974.87 26.92 972.06 27.39C969.24 27.39 966.43 25.39 963.61 26.76C960.24 26.66 956.9 28.51 953.53 25.61C949.43 26.33 945.24 22.98 941.12 27.52C937.01 25.33 932.92 22.61 928.8 24.22C924.69 21.72 920.62 26.16 916.5 26.37C912.38 24.65 908.17 26.74 904.05 23.48C899.93 27.02 895.85 25.58 891.73 24.11C889.398 24.9296 886.929 25.2862 884.46 25.16C882.04 23.75 879.63 26.65 877.23 25.45C874.87 29.24 872.62 25.68 870.36 23.06C868.11 18.81 865.84 24.61 863.46 20.41C861.12 18.21 858.66 21.89 856.18 19.81C853.69 18.23 851.18 19.61 848.77 19.41C845.06 18.71 841.98 19.83 838.27 19.41C836.08 21.66 833.69 16.93 831.48 16.96C829.27 15.96 826.77 18.29 824.48 17.51C820.59 20.64 817.7 23.79 813.85 24.66C810.469 24.957 807.071 25.0339 803.68 24.89C800.45 26.53 797.07 23.8 793.79 24.25C790.53 22.34 787.45 25.3 784.18 25.99C780.261 27.8497 775.899 28.5704 771.59 28.07C767.39 30.8 763.18 26.83 758.97 27.36C754.77 26.67 750.55 27.86 746.34 25.8C742.13 27.74 737.96 29.71 733.75 29.04C729.55 31.2 725.31 27.36 721.1 27.79C716.9 23.74 712.64 26.23 708.44 27.74C704.25 27.21 700.32 30.22 696.14 31.66C691.96 29.04 687.86 35.28 683.69 33.44C681.33 34.26 678.64 30.51 676.3 31.49C673.96 29.83 671.7 34.6 669.37 32.99C667.04 31.38 664.75 34.81 662.43 33.48C660.11 31.84 657.79 31.87 655.5 33.97C653.2 31.41 650.96 34.64 648.72 36.2C646.48 34.71 644.24 37.12 641.94 38.2C639.63 40.56 637.31 38.89 634.94 36.9C632.63 38.62 630.31 37.25 628 35.1C624.38 30.6 620.49 38.89 616.94 36.3C613.4 38.44 610.15 34.3 606.67 32.84C602.67 31.35 598.32 35 594.25 31.84C590.18 32.01 586.03 33.07 581.94 30.64C577.85 28.05 573.94 25.87 569.87 27.47C565.77 28.19 561.43 28.04 557.32 28.47C553.21 29.99 549.14 30.47 545.02 27.12C540.9 27.73 536.87 26.52 532.76 25.12C528.63 24.9 524.83 24.12 520.76 20.43C516.64 19.72 512.26 23.3 508.15 22.43C505.72 21.37 503.33 20.14 500.89 19.27C497.21 18.33 493.48 15.11 489.78 20.37C486.1 19.98 482.56 22.42 478.87 24.47C476.41 25.53 473.87 23.75 471.43 22.62C468.94 19.79 466.43 22.62 464.01 20.54C460.32 19.11 456.66 21.54 453.01 21.99C449.32 19.15 445.66 21.37 442.01 21.63C438.32 17.44 434.45 24.77 430.84 24.08C427.08 24.22 423.34 23.16 419.57 21.86C415.35 20.91 410.99 21.35 406.74 21.54C402.482 22.1174 398.152 21.8455 394 20.74C391.87 25.9 389.76 19.46 387.65 18.18C385.54 15.06 383.42 18.43 381.29 15.81C377.02 16.11 372.8 21.55 368.54 19.07C365.13 17.53 362.01 18.82 358.61 22.07C354.95 22.37 350.61 19.3 347.06 19.34C343.49 19.18 340.62 20.94 337.15 24.78C334.85 23.61 332.48 26.96 330.15 26.78C326.37 26.2 323.09 31.23 319.26 32.98C315.37 32.71 310.97 31.68 306.97 35.59C304.33 36.46 302.08 39.08 299.37 38.87C297.804 39.421 296.107 39.4776 294.508 39.0322C292.909 38.5869 291.485 37.6611 290.43 36.38C288.42 35.1491 286.199 34.3014 283.88 33.88C281.73 28.88 279.59 29.7 277.36 31.66C275.09 29.17 272.8 29.91 270.5 30.8C268.21 30.2 265.91 28.23 263.66 30.16C261.39 29.01 259.07 27.52 256.76 30.49C254.45 30.41 252.14 31.02 249.87 30.99C247.6 30.96 245.32 29.99 243.04 31.2C240.76 34.64 238.48 32.2 236.2 31.52C233.93 30.64 231.66 29.34 229.38 30.52C228.369 29.8931 227.241 29.4809 226.064 29.3088C224.887 29.1368 223.688 29.2087 222.54 29.52C220.28 25.88 218.01 30.03 215.75 29.96C213.48 29.15 211.2 31.47 208.91 30.38C205.74 28.33 202.72 27.71 199.74 28.67C196.74 27.61 193.81 28.17 190.74 26.14C188.07 27.96 185.47 21.36 182.8 23.52C178.8 23.43 173.99 24.44 169.92 23.3C165.85 22.16 162.32 20.43 158.08 18.08C154.68 19.5 151.38 14.48 147.96 16.78C144.54 12.54 141.07 17.56 137.64 16C134.17 16.32 130.72 19.71 127.34 19.17C124.01 21.28 120.59 17.17 117.34 16.27C115.08 18.27 112.82 15.04 110.55 16.27C108.28 17.5 106.01 16.6 103.72 16.02C101.33 17.25 98.95 13.27 96.58 15.92C94.2 16.72 91.83 15.11 89.44 15.5C87.036 14.9359 84.534 14.9359 82.13 15.5C79.7 16.17 77.29 14.89 74.93 16.12C72.56 16.51 70.02 16.07 67.51 16.43C65 14.24 62.51 14.04 60.29 18.25C58.29 19.43 56.84 19.84 55.36 23.25C53.87 22.99 52.36 26.77 50.36 28.16C48.36 32.26 46.2 32.64 44.03 30.45C41.86 31.52 39.68 31.07 37.66 32.61C35.66 29.75 33.35 31.61 31.07 34.09C28.78 32.48 26.49 37.79 24.42 35.41C22.35 42.11 20.42 40.52 18.57 38.8C16.67 41.24 14.76 39.25 12.64 42.01C10.04 37.38 7.28 43.92 4.52 43.16C3.05 42.21 1.58 42.95 0.130005 43.6V129.5C0.660438 129.5 4 129.5 4 129.5H8.5L117.34 129.4H1441.05V94V59.19Z" fill="#947536"/>
</svg>
